<svg id="logosandtypes_com" xmlns="http://www.w3.org/2000/svg" viewBox="0 0 150 150"><style>.st1{fill:#2a6b85}.st3{fill:#43a6e0}</style><g id="Layer_3_2_"><g id="Layer_3_1_"><path id="Layer_3" d="M0 0h150v150H0V0z" fill="none"/></g></g><g id="civil_environmental_engineering"><path class="st1" d="M18.9 34.9zM80.1 141.4c-14.6 0-28.9-4.5-40.7-13l-.1-.1C24.5 117.8 14.3 102 11 84.2c-.8-4.4-1.3-8.9-1.3-13.4 0-12.6 3.3-24.9 9.7-35.7l.2-.3h-.1c1.9-3.4 4.2-6.5 6.7-9.4l8.2 6.4c11.1-14 27.3-22.9 45-24.7l1.3 9.7c2.9-.3 5.8-.4 8.7-.3 13.1-.1 25.8 4.2 36.2 12.1l-6.6 8.8.2.2c11.3 7.6 19.4 19.2 22.4 32.5l-9 2.2.1.3c2.9 10.3 2.3 21.2-1.5 31.2l-14.8-6.2c3.3-5.9 5.1-12.5 5.1-19.2 0-.9 0-1.8-.1-2.9-.7-9.5-4.9-18.4-11.8-25.1-7.1-6.9-16.5-10.9-26.5-11.2h-1.5c-9.9 0-19.4 3.6-26.8 10.2-3 2.7-5.6 5.9-7.6 9.3l-.1.1c-3.5 6-5.3 12.7-5.4 19.6 0 1.9.4 3.8.7 6.2 1.5 9.7 7 18.4 15.1 24.7l-.1.6c7.2 5 15.2 7.7 23.8 7.7 1.8 0 3.7-.1 5.5-.4v23.9c-2.1.2-4.3.3-6.6.3z"/><path d="M80.8 16.7l-1.1-10C61.8 8.5 45.4 17.6 34.4 31.8l8.1 6.9c9.5-11.9 23.2-19.8 38.3-22z" fill="#4da295"/><path class="st3" d="M80.8 16.7L82 28.1c2.1-.2 4.2-.4 6.3-.4 11.1 0 21.9 3.3 31.1 9.5l6.6-8.8C115.5 20.3 102.7 16 89.5 16c-3 .1-5.9.3-8.7.7z"/><path d="M119.4 37.3c-9.2-6.2-20-9.5-31.1-9.5-2.1 0-4.2.1-6.3.4l.8 7.3h.9c10.7 0 21.2 3.3 29.9 9.5 9.4 6.7 16.3 16.4 19.4 27.5l8.9-2.2c-2.9-13.5-11-25.3-22.5-33z" fill="#205e9a"/><path d="M41.5 53.6c2.2-3.4 4.7-6.5 7.5-9.4l-6.4-5.5c-2.5 3.2-4.8 6.6-6.6 10.2l.2.2-.2-.2c-4.3 8.5-6.6 17.9-6.5 27.5 0 2.7.2 5.4.5 8.1h12.8c-.3-2-.4-4-.5-6.1 0-6.9 1.9-13.8 5.4-19.8l-6.2-5z" fill="#15476e"/><path d="M121.3 78.3c0 6.8-1.8 13.5-5.2 19.3l15.3 6.4c4-10.1 4.6-21.2 1.7-31.6l-11.9 2.9c.1 1.1.1 2 .1 3z" fill="#323a7c"/><path class="st3" d="M81.7 117.2c-8.7 0-17.1-2.8-24-8l-13.1 13.7-.1.1c-11.9-9.8-19.9-23.4-22.8-38.5-.7-4-1.1-8.1-1.1-12.3 0-9.5 2-18.8 5.9-27.4 1.9-3.7 5.4-9.9 7.9-13.1l-8-6.9c-2.7 3.1-5.1 6.5-7.2 10l.1.1-.1-.1c-6.4 11-9.8 23.5-9.8 36.2 0 4.5.4 9.1 1.3 13.5 3.5 17.9 13.7 33.7 28.5 44.2l.1-.1c11.9 8.5 26.2 13 40.9 13 2.5 0 4.5-.1 7.2-.4v-24.5c-1.9.4-3.8.5-5.7.5z"/><path d="M113.7 45c-4.4.2-5.5 2.2-4.2 5.6 6.8 6.6 11 15.4 11.7 24.9l11.9-2.9c-3.2-11.3-10-21-19.4-27.6z" fill="#001d53"/><path d="M66.9 42.2c4.7-1.9 9.8-2.9 14.8-2.8h1.4c1.9-1.4 1.9-2.7-.4-3.9-6 .2-11.8 1.5-17.3 3.8l1.5 2.9z" fill="#000c28"/><path d="M83.7 35.4h-.9l.4 3.9c9.8.3 19.2 4.3 26.3 11.2l4.2-5.6c-8.8-6.2-19.3-9.5-30-9.5z" fill="#001545"/><path d="M82.8 35.5l-.8-7.4c-12.5 1.4-24.1 7.1-33 16l1.6 4 4.7 1.2c3.4-3 7.4-5.5 11.6-7.2l-1.5-2.9c5.5-2.2 11.4-3.5 17.4-3.7z" fill="#092f52"/><path d="M48.9 44.2c-2.8 2.9-5.3 6-7.5 9.4l1.7 1.4 4.4 3.7c2-3.4 4.6-6.6 7.6-9.2l.2-.1-6.4-5.2z" fill="#01214a"/></g></svg>